<?xml version="1.0" standalone="no"?>
<!DOCTYPE svg PUBLIC "-//W3C//DTD SVG 20010904//EN"
 "http://www.w3.org/TR/2001/REC-SVG-20010904/DTD/svg10.dtd">
<svg version="1.0" xmlns="http://www.w3.org/2000/svg"
 width="700.000000pt" height="700.000000pt" viewBox="0 0 700.000000 700.000000"
 preserveAspectRatio="xMidYMid meet">
<metadata>
Created by potrace 1.14, written by Peter Selinger 2001-2017
</metadata>
<g transform="translate(0.000000,700.000000) scale(0.100000,-0.100000)"
fill="#000000" stroke="none">
<path d="M2535 6988 c-17 -50 -113 -319 -170 -473 -20 -55 -47 -131 -61 -170
-13 -38 -28 -79 -33 -90 -5 -11 -50 -132 -99 -270 -50 -137 -165 -457 -257
-710 -92 -253 -176 -485 -187 -515 -17 -48 -51 -144 -120 -330 -11 -30 -24
-64 -28 -75 -4 -11 -22 -58 -38 -105 -17 -47 -52 -143 -78 -215 -26 -71 -53
-148 -61 -170 -56 -154 -184 -507 -196 -540 -8 -22 -26 -71 -40 -110 -25 -70
-51 -140 -166 -455 -139 -382 -311 -861 -311 -866 0 -3 -6 -20 -14 -37 -13
-27 -200 -541 -258 -707 -24 -67 -57 -158 -68 -185 -13 -31 -232 -637 -240
-665 -5 -14 -20 -56 -35 -95 -14 -38 -37 -100 -50 -138 l-24 -67 933 0 934 0
11 28 c18 46 142 405 152 442 6 19 14 44 19 55 9 20 25 66 155 445 37 107 74
214 82 238 l15 42 1198 0 1197 0 16 -42 c8 -24 25 -72 37 -108 12 -36 26 -74
30 -85 5 -11 24 -67 44 -125 19 -58 71 -211 116 -340 45 -129 105 -304 134
-388 29 -84 55 -154 58 -157 3 -3 424 -4 935 -3 l931 3 -89 245 c-49 135 -98
270 -109 300 -10 30 -42 118 -70 195 -53 142 -91 248 -174 480 -26 72 -51 139
-56 150 -5 11 -16 40 -24 65 -8 25 -21 63 -29 85 -19 47 -137 374 -242 665
-74 207 -148 410 -160 440 -8 19 -25 67 -38 105 -14 39 -43 120 -65 180 -22
61 -62 169 -87 240 -26 72 -50 139 -55 150 -11 28 -92 248 -95 260 -1 6 -5 17
-8 25 -4 8 -43 116 -87 240 -45 124 -88 243 -97 265 -14 38 -41 112 -147 408
-24 67 -60 165 -79 217 -19 52 -112 309 -207 570 -94 261 -175 484 -180 495
-5 11 -86 234 -180 495 -94 261 -175 484 -180 495 -8 20 -54 145 -56 155 0 3
-7 20 -13 38 l-13 32 -959 0 c-759 0 -961 -3 -964 -12z m982 -2140 c6 -18 62
-188 123 -378 62 -190 127 -390 146 -445 18 -55 96 -296 174 -535 78 -239 162
-496 187 -570 25 -74 46 -142 48 -150 2 -8 19 -61 39 -117 l35 -103 -769 0
-770 0 9 23 c5 12 66 198 136 412 70 215 137 422 150 460 22 66 210 644 367
1125 91 279 102 310 108 310 3 0 11 -15 17 -32z"/>
</g>
</svg>
